<?xml version="1.0"?>

<svg style="width:48px; height:48px;" version="1.1" viewbox="0 0 48 48" xmlns="http://www.w3.org/2000/svg" >
  
  <rect x="0" y="0" width="48" height="48" fill="#000000"/>  
  <circle cx="24" cy="24" r="12" stroke="none" fill="#ffffff" transform-origin="50% 50%"></circle>

  <polyline points="0,24 11,18 8,11 19,13 23,3 26,11 37,9 34,16 41,19 37,22 47,25 37,29 37,35 30,33 30,42 23,34 15,41 14,29 7,33 8,26" fill="#ffffff" opacity="0.3" stroke="none">
  <animateTransform attributeName="transform" type="rotate" from="0 24 24" to="360 24 24" begin="0s" dur="2s" repeatCount="indefinite" />
  </polyline>
  
  <polyline points="0,24 11,18 8,11 19,13 23,3 26,11 37,9 34,16 41,19 37,22 47,25 37,29 37,35 30,33 30,42 23,34 15,41 14,29 7,33 8,26" fill="#ffffff" opacity="0.3" stroke="none">
  <animateTransform attributeName="transform" type="rotate" from="0 24 24" to="360 24 24" begin="0s" dur="4s" repeatCount="indefinite" />
  </polyline>
  
  <polyline points="34,16 41,19 37,22 47,25 37,29 37,35 30,33 30,42 23,34 15,41 14,29 7,33 8,26 0,24 11,18 9,11 19,13 23,3 26,11 37,9" fill="#ffffff" opacity="0.3" stroke="none">
  <animateTransform attributeName="transform" type="rotate" from="0 24 24" to="-360 24 24" begin="0s" dur="3s" repeatCount="indefinite" />
  </polyline>
  
  <polyline points="34,16 41,19 37,22 47,25 37,29 37,35 30,33 30,42 23,34 15,41 14,29 7,33 8,26 0,24 11,18 8,11 19,13 23,3 26,11 37,9" fill="#ffffff" opacity="0.3" stroke="none">
  <animateTransform attributeName="transform" type="rotate" from="0 24 24" to="-360 24 24" begin="0s" dur="5s" repeatCount="indefinite" />
  </polyline>
</svg>
